<svg xmlns="http://www.w3.org/2000/svg" width="100" height="100" viewBox="0 0 100 100"><defs><style>.a{fill:#f0f6ff;}.b,.c{fill:#85aaef;}.b,.d,.e{stroke:#85aaef;}.d,.e{fill:none;}.d{stroke-linecap:round;}</style></defs><g transform="translate(-33.836 -174.836)"><circle class="a" cx="50" cy="50" r="50" transform="translate(33.836 174.836)"/><g transform="translate(70.334 225.189)"><g transform="translate(0 0)"><path class="b" d="M22.656,45.812H43.9a2.664,2.664,0,0,0,2.656-2.656v-27A2.664,2.664,0,0,0,43.9,13.5H22.656A2.664,2.664,0,0,0,20,16.156v27A2.664,2.664,0,0,0,22.656,45.812Zm-.885-29.656a.888.888,0,0,1,.885-.885H43.9a.888.888,0,0,1,.885.885v27a.888.888,0,0,1-.885.885H22.656a.888.888,0,0,1-.885-.885Z" transform="translate(-20 -13.5)"/></g><g transform="translate(9.507 14.831)"><path class="c" d="M14.38,7.734A5.88,5.88,0,0,0,9.7,2.441,5.95,5.95,0,0,0,8.507,2.32,5.876,5.876,0,0,0,2.63,8.179V9.806a.976.976,0,0,0,1.952,0V8.179a3.931,3.931,0,0,1,7.862,0V9.806a.976.976,0,0,0,1.952,0V8.179C14.4,8.03,14.391,7.881,14.38,7.734Z" transform="translate(-2.63 -2.32)"/><path class="c" d="M13.581,35.242a2.283,2.283,0,0,1-2.225-1.783,2.32,2.32,0,0,1-.056-.5V31.331a2.612,2.612,0,0,0-5.224,0v1.626A2.279,2.279,0,0,1,3.8,35.241a.975.975,0,0,0,0,1.949,4.235,4.235,0,0,0,4.229-4.233V31.331a.66.66,0,0,1,1.32,0v1.626a4.245,4.245,0,0,0,4.238,4.234.975.975,0,1,0-.007-1.949Z" transform="translate(-2.805 -25.472)"/></g><line class="d" x2="15.374" transform="translate(5.249 9.247)"/></g><g transform="translate(97.334 194.189)"><g transform="translate(0 0)"><path class="b" d="M21.55,32.36h12.4a1.555,1.555,0,0,0,1.55-1.55V15.05a1.555,1.555,0,0,0-1.55-1.55H21.55A1.555,1.555,0,0,0,20,15.05V30.81A1.555,1.555,0,0,0,21.55,32.36Zm-.517-17.31a.518.518,0,0,1,.517-.517h12.4a.518.518,0,0,1,.517.517V30.81a.518.518,0,0,1-.517.517H21.55a.518.518,0,0,1-.517-.517Z" transform="translate(-20 -13.5)"/></g><g transform="translate(5.549 8.657)"><path class="c" d="M9.488,5.48A3.432,3.432,0,0,0,6.757,2.391a3.473,3.473,0,0,0-.7-.071A3.43,3.43,0,0,0,2.63,5.74v.949a.57.57,0,0,0,1.139,0V5.74a2.294,2.294,0,0,1,4.589,0v.949a.57.57,0,0,0,1.139,0V5.74C9.5,5.653,9.495,5.566,9.488,5.48Z" transform="translate(-2.63 -2.32)"/><path class="c" d="M9.106,32.531a1.333,1.333,0,0,1-1.3-1.041,1.354,1.354,0,0,1-.032-.293v-.949a1.525,1.525,0,0,0-3.049,0V31.2A1.331,1.331,0,0,1,3.4,32.53a.569.569,0,0,0,0,1.138A2.472,2.472,0,0,0,5.865,31.2v-.949a.385.385,0,0,1,.771,0V31.2A2.478,2.478,0,0,0,9.11,33.669a.569.569,0,1,0,0-1.138Z" transform="translate(-2.816 -26.828)"/></g><line class="d" x2="8.974" transform="translate(3.064 5.397)"/></g><g transform="translate(53.486 205.807)"><g transform="translate(0 0)"><path class="b" d="M21.12,27.124h8.958A1.123,1.123,0,0,0,31.2,26V14.62a1.123,1.123,0,0,0-1.12-1.12H21.12A1.123,1.123,0,0,0,20,14.62V26A1.123,1.123,0,0,0,21.12,27.124Zm-.373-12.5a.374.374,0,0,1,.373-.373h8.958a.374.374,0,0,1,.373.373V26a.374.374,0,0,1-.373.373H21.12A.374.374,0,0,1,20.747,26Z" transform="translate(-20 -13.5)"/></g><g transform="translate(4.009 6.253)"><path class="c" d="M7.584,4.6A2.479,2.479,0,0,0,5.611,2.371a2.509,2.509,0,0,0-.5-.051A2.477,2.477,0,0,0,2.63,4.791v.686a.411.411,0,0,0,.823,0V4.791a1.657,1.657,0,0,1,3.315,0v.686a.411.411,0,0,0,.823,0V4.791C7.591,4.728,7.589,4.665,7.584,4.6Z" transform="translate(-2.63 -2.32)"/><path class="c" d="M7.363,31.476a.963.963,0,0,1-.938-.752.978.978,0,0,1-.023-.212v-.686a1.1,1.1,0,0,0-2.2,0v.686a.961.961,0,0,1-.96.963.411.411,0,0,0,0,.822,1.785,1.785,0,0,0,1.783-1.785v-.686a.278.278,0,0,1,.557,0v.686A1.79,1.79,0,0,0,7.366,32.3a.411.411,0,1,0,0-.822Z" transform="translate(-2.82 -27.356)"/></g><line class="d" x2="6.482" transform="translate(2.213 3.899)"/></g><line class="e" y1="10" x2="33" transform="translate(64.336 199.336)"/><line class="e" x1="8" y1="7" transform="translate(64.336 219.336)"/></g></svg>