<svg xmlns="http://www.w3.org/2000/svg" xmlns:xlink="http://www.w3.org/1999/xlink" width="36" height="36" viewBox="0 0 36 36"><defs><style>.a{fill:url(#a);}.b,.c{fill:#fff;}.b,.d{stroke:#fff;}.d{fill:none;stroke-linecap:round;}</style><linearGradient id="a" x1="0.5" x2="0.5" y2="1" gradientUnits="objectBoundingBox"><stop offset="0" stop-color="#08bdff"/><stop offset="1" stop-color="#0058ff"/></linearGradient></defs><g transform="translate(-34 -175)"><circle class="a" cx="18" cy="18" r="18" transform="translate(34 175)"/><g transform="translate(-37.572 -46.913)"><g transform="translate(82 231)"><g transform="translate(0 0)"><path class="b" d="M21.555,32.415H33.992a1.559,1.559,0,0,0,1.555-1.555V15.055A1.559,1.559,0,0,0,33.992,13.5H21.555A1.559,1.559,0,0,0,20,15.055V30.86A1.559,1.559,0,0,0,21.555,32.415Zm-.518-17.36a.52.52,0,0,1,.518-.518H33.992a.52.52,0,0,1,.518.518V30.86a.52.52,0,0,1-.518.518H21.555a.52.52,0,0,1-.518-.518Z" transform="translate(-20 -13.5)"/></g></g><g transform="translate(87.565 239.682)"><path class="c" d="M9.508,5.489a3.442,3.442,0,0,0-2.739-3.1,3.483,3.483,0,0,0-.7-.071A3.439,3.439,0,0,0,2.63,5.75V6.7a.571.571,0,0,0,1.143,0V5.75a2.3,2.3,0,0,1,4.6,0V6.7a.571.571,0,0,0,1.143,0V5.75C9.518,5.663,9.515,5.575,9.508,5.489Z" transform="translate(-2.63 -2.32)"/><path class="c" d="M9.124,32.542a1.336,1.336,0,0,1-1.3-1.044,1.358,1.358,0,0,1-.033-.294v-.952a1.529,1.529,0,0,0-3.058,0V31.2A1.334,1.334,0,0,1,3.4,32.541a.571.571,0,0,0,0,1.141A2.479,2.479,0,0,0,5.874,31.2v-.952a.386.386,0,0,1,.773,0V31.2a2.485,2.485,0,0,0,2.481,2.479.571.571,0,1,0,0-1.141Z" transform="translate(-2.816 -26.823)"/></g><line class="d" x2="9" transform="translate(85.073 236.413)"/></g></g></svg>