<svg xmlns="http://www.w3.org/2000/svg" width="45.793" height="45.793" viewBox="0 0 45.793 45.793"><defs><style>.a{fill:#2fc414;}</style></defs><path class="a" d="M34.014,14.331l-1.937-1.992a.417.417,0,0,0-.308-.132h0a.4.4,0,0,0-.308.132L18.03,25.867,13.142,20.98a.426.426,0,0,0-.616,0l-1.959,1.959a.439.439,0,0,0,0,.627l6.165,6.165a1.95,1.95,0,0,0,1.288.627,2.043,2.043,0,0,0,1.277-.605h.011L34.025,14.958A.471.471,0,0,0,34.014,14.331Z" transform="translate(0.618 1.62)"/><path class="a" d="M26.272,6.457a19.807,19.807,0,1,1-14.013,5.8,19.683,19.683,0,0,1,14.013-5.8m0-3.082a22.9,22.9,0,1,0,22.9,22.9,22.893,22.893,0,0,0-22.9-22.9Z" transform="translate(-3.375 -3.375)"/></svg>