<svg xmlns="http://www.w3.org/2000/svg" xmlns:xlink="http://www.w3.org/1999/xlink" width="263.975" height="230.195" viewBox="0 0 263.975 230.195"><defs><style>.a,.bk,.d{fill:none;}.b{fill:#e5c89e;}.c{opacity:0.23;}.d{stroke:#8091a9;}.bk,.d{stroke-miterlimit:10;}.e{fill:#b1bac9;}.f{clip-path:url(#a);}.g{fill:#fff;}.h{clip-path:url(#b);}.i{fill:#e8b264;}.j{clip-path:url(#c);}.k{clip-path:url(#d);}.l{fill:#eedcc2;}.m{clip-path:url(#e);}.n{fill:#3062ff;}.o{fill:#a4a4ad;}.p{fill:#242b3d;}.q{fill:#555591;}.r{fill:#d9dbe6;}.s{fill:#9aa2b8;}.t{clip-path:url(#f);}.u{fill:#ebb3b5;}.v{fill:#e6e6ed;}.w{clip-path:url(#g);}.x{fill:#655257;}.y{clip-path:url(#h);}.z{clip-path:url(#i);}.aa{fill:#f2cacc;}.ab{fill:#9200ff;}.ac{fill:#9c73ff;}.ad{fill:#000002;}.ae{clip-path:url(#j);}.af{clip-path:url(#k);}.ag{clip-path:url(#l);}.ah{clip-path:url(#m);}.ai{clip-path:url(#n);}.aj{clip-path:url(#o);}.ak{clip-path:url(#p);}.al{clip-path:url(#q);}.am{fill:#251a43;}.an{fill:#ffa2a5;}.ao{fill:#42407a;}.ap{fill:#3eb4ff;}.aq{clip-path:url(#r);}.ar{fill:#f8afb7;}.as{clip-path:url(#s);}.at{fill:#4c4981;}.au{clip-path:url(#t);}.av{fill:#3a3768;}.aw{fill:#060020;}.ax{fill:#facad1;}.ay{fill:rgba(97,232,255,0.39);}.az{clip-path:url(#u);}.ba{fill:#8091a9;}.bb{fill:#0d2155;}.bc{fill:#39475b;}.bd{clip-path:url(#v);}.be{clip-path:url(#x);}.bf{fill:#dfe3e8;}.bg{clip-path:url(#y);}.bh{fill:#5ab700;}.bi{fill:#fec2be;}.bj{fill:#5488ff;}.bk{stroke:#2b2f90;}.bl{clip-path:url(#z);}.bm{fill:#e5b992;}.bn{fill:#f5aead;}.bo{fill:#b4ee73;}.bp{fill:#ebeef2;}.bq{fill:#00ffc3;}.br{fill:#61e8ff;}.bs{fill:#004680;}</style><clipPath id="a"><path class="a" d="M0,0H71.467V41.767H0Z"/></clipPath><clipPath id="b"><path class="a" d="M0,0H29.677V27.7H0Z"/></clipPath><clipPath id="c"><path class="a" d="M0,0H29.677V17.085H0Z"/></clipPath><clipPath id="d"><path class="b" d="M29.1,9.364,16.225,16.755a3.084,3.084,0,0,1-2.783,0L.576,9.322a.845.845,0,0,1,0-1.6L13.452.33a3.084,3.084,0,0,1,2.783,0L29.1,7.762a.845.845,0,0,1,0,1.6"/></clipPath><clipPath id="e"><path class="a" d="M0,0H5.528V7.173H0Z"/></clipPath><clipPath id="f"><path class="a" d="M0,0H26.106V20.418H0Z"/></clipPath><clipPath id="g"><path class="a" d="M0,0H7.309V4.58H0Z"/></clipPath><clipPath id="h"><path class="a" d="M0,0H74.738V43.679H0Z"/></clipPath><clipPath id="i"><path class="a" d="M0,0H9.841V22.148H0Z"/></clipPath><clipPath id="j"><path class="a" d="M19.4,0H0V18.106H19.4Z"/></clipPath><clipPath id="k"><path class="a" d="M19.4,0H0V11.167H19.4Z"/></clipPath><clipPath id="l"><path class="b" d="M.377,6.12l8.415,4.831a2.016,2.016,0,0,0,1.819,0l8.409-4.855a.552.552,0,0,0,0-1.047L10.6.216a2.015,2.015,0,0,0-1.819,0L.376,5.073a.552.552,0,0,0,0,1.047" transform="translate(0)"/></clipPath><clipPath id="m"><path class="a" d="M0,0H96.012V56.112H0Z"/></clipPath><clipPath id="n"><path class="a" d="M33.889,0H0V31.634H33.889Z"/></clipPath><clipPath id="o"><path class="a" d="M33.889,0H0V19.509H33.889Z" transform="translate(0)"/></clipPath><clipPath id="p"><path class="b" d="M.659,10.693l14.7,8.44a3.521,3.521,0,0,0,3.178,0l14.692-8.483a.965.965,0,0,0,0-1.829L18.528.377a3.521,3.521,0,0,0-3.178,0L.658,8.864a.965.965,0,0,0,0,1.829"/></clipPath><clipPath id="q"><path class="a" d="M0,0H10.255V6.048H0Z" transform="translate(0)"/></clipPath><clipPath id="r"><path class="a" d="M0,0H13.062V21.444H0Z"/></clipPath><clipPath id="s"><path class="a" d="M0,0H4.93V8.463H0Z"/></clipPath><clipPath id="t"><path class="a" d="M0,90.946H39.046V0H0Z"/></clipPath><clipPath id="u"><path class="a" d="M0,0H26.207V15.316H0Z"/></clipPath><clipPath id="v"><path class="a" d="M0,0H19.109V11.168H0Z"/></clipPath><clipPath id="x"><path class="a" d="M0,0H55.327V32.334H0Z"/></clipPath><clipPath id="y"><path class="a" d="M0,0H7.864V3.62H0Z"/></clipPath><clipPath id="z"><path class="a" d="M0,0H8.188V7.87H0Z"/></clipPath></defs><g transform="translate(-47 -200.399)"><g transform="translate(47 200.399)"><g class="c" transform="translate(18.139 65.938)"><path class="d" d="M0,0,80.671,68.715" transform="translate(112.98 74.617)"/><path class="d" d="M103.3,0,42.981,6.427,0,63.831" transform="translate(0 73.19)"/><path class="d" d="M0,56.48,43.852,3.614,116.575,0" transform="translate(108.79 14.688)"/><path class="d" d="M74.625,17.123,0,0" transform="translate(73.421 0)"/></g><g transform="translate(42.343 0)"><g transform="translate(11.053 51.059)"><path class="e" d="M71.225,2.842,64.785,21.218a3.813,3.813,0,0,1-3.156,2.526L26.238,27.867A9.076,9.076,0,0,1,20.452,26.6L1.8,15.869A3.81,3.81,0,0,1,0,13.062l.339-2.385C.441,11.87.723,8.439,1.8,9.095L20.452,19.821a9.076,9.076,0,0,0,5.786,1.272l35.391-4.124a3.813,3.813,0,0,0,3.156-2.526L70.98.034c.09-.258.459,1.05.459,1.05A11.087,11.087,0,0,1,71.225,2.842Z" transform="translate(0.027 14.279)"/><g transform="translate(0 0)"><path class="a" d="M0,0H71.467V41.767H0Z"/><g class="f"><path class="g" d="M6.307,6.727.192,25.261a3.813,3.813,0,0,0,1.631,4.448L20.48,40.434a9.077,9.077,0,0,0,5.786,1.272l35.391-4.124a3.813,3.813,0,0,0,3.156-2.526l6.439-18.375a3.811,3.811,0,0,0-1.692-4.562L50.676,1.216A9.078,9.078,0,0,0,45.106.059L9.493,4.135A3.813,3.813,0,0,0,6.307,6.727" transform="translate(0 0)"/></g></g></g><g transform="translate(0 50.94)"><g transform="translate(0 5.838)"><path class="a" d="M0,0H29.677V27.7H0Z" transform="translate(0 0)"/><g class="h" transform="translate(0 0)"><path class="i" d="M29.677,2.7,27.564,4.372,16.235.334a3.083,3.083,0,0,0-2.783,0L2.051,4.372,0,2.7V19.16H0a.987.987,0,0,0,.574.78l12.866,7.428a3.084,3.084,0,0,0,2.783,0L29.1,19.982a.96.96,0,0,0,.575-.822h0Z" transform="translate(0 0)"/></g></g><g transform="translate(0 0)"><path class="a" d="M0,0H29.677V17.085H0Z"/><g class="j"><g transform="translate(0 0)"><g transform="translate(0 0)"><path class="b" d="M29.1,9.364,16.225,16.755a3.084,3.084,0,0,1-2.783,0L.576,9.322a.845.845,0,0,1,0-1.6L13.452.33a3.084,3.084,0,0,1,2.783,0L29.1,7.762a.845.845,0,0,1,0,1.6" transform="translate(0 0)"/><g class="k" transform="translate(0 0)"><path class="l" d="M29.1,9.364,16.225,16.755a3.084,3.084,0,0,1-2.783,0L.576,9.322a.845.845,0,0,1,0-1.6L13.452.33a3.084,3.084,0,0,1,2.783,0L29.1,7.762a.845.845,0,0,1,0,1.6" transform="translate(7.408 -4.041)"/></g></g></g></g></g></g><g transform="translate(32.309 0)"><g transform="translate(19.726 64.927)"><path class="a" d="M0,0H5.528V7.173H0Z" transform="translate(0 0)"/><g class="m" transform="translate(0 0)"><path class="n" d="M.456.163S.074.12.01,1.287.18,2.75.668,3.11s1.272,3.2,2.5,3.711,2.439.7,2.354-1.1S3.4,2.772,3.234,1.7,3.234-.41.456.163" transform="translate(0 0)"/></g></g><path class="o" d="M2.262.3v1.23s-.495.65-2.007.24L0,0Z" transform="translate(20.097 63.676)"/><path class="n" d="M2.249.334S1.443.207,1.761,2.115C1.167,3.048-.041,4,0,6.4s3.4.007,3.52-.954a6.435,6.435,0,0,1,1.124-2.63C5.183,2.575,5.124,0,4.412.079A3.729,3.729,0,0,0,2.249.334" transform="translate(8.878 62.911)"/><path class="o" d="M0,.806v1.4a1.928,1.928,0,0,0,2.092-.226C2.163.806,2.163,0,2.163,0Z" transform="translate(11.077 61.371)"/><path class="p" d="M8.652,3.376c2.46-.269,2.573-.707,2.573-.707A3.154,3.154,0,0,1,12.868,5.1c-.088-2.027-.174-3.489-.255-4.056C8.822,1.4,0,0,0,0S.006.64.023,1.768c.941.9,3.245,2.143,8.629,1.609" transform="translate(9.042 28.603)"/><path class="q" d="M12.844,3.333A3.153,3.153,0,0,0,11.2.9s-.113.438-2.573.707C3.245,2.143.941.9,0,0,.082,5.138.421,20.46,1.673,32.146c1.64.566,2.375.254,3.11-.4V6.133l2.6.113s3.054,23.412,3.223,27.54a2.371,2.371,0,0,0,2.945,0c0-5.464-.362-22.413-.709-30.452" transform="translate(9.065 30.371)"/><path class="r" d="M1.693,0A4.679,4.679,0,0,1,0,2.107C.657,2.141.422,5.46.4,8.53a7.326,7.326,0,0,1,.685-.983h0c.158-.213.337-.45.529-.7C1.521,5.2,1.383.837,1.693,0" transform="translate(20.154 18.365)"/><path class="s" d="M1.445,0A17.656,17.656,0,0,1,0,7.409C.77,6.015,1.389,4.835,1.389,4.835S1.728,4.1,1.445,0" transform="translate(7.681 19.029)"/><path class="r" d="M1.458.084A1.732,1.732,0,0,0,.157.2a1.435,1.435,0,0,0-.127.864C.412,1.865,1.741,2.8,2.575,2.2A1.906,1.906,0,0,0,2.76,2,2.035,2.035,0,0,0,1.458.084" transform="translate(2.381 28.616)"/><g transform="translate(2.538 10.998)"><path class="a" d="M0,0H26.106V20.418H0Z" transform="translate(0 0)"/><g class="t" transform="translate(0 0)"><path class="g" d="M21.263,3.592C19.623,1.528,18.209.255,12.993.015,10.943-.079,5.6.227,5.047,2.136S4.03,10.618,3.436,11.467A41.719,41.719,0,0,0,0,17.813,1.732,1.732,0,0,1,1.3,17.7,2.035,2.035,0,0,1,2.6,19.62a38.568,38.568,0,0,0,2.541-4.18A17.656,17.656,0,0,0,6.588,8.031c.283,4.1-.056,4.835-.056,4.835s-.17,3.181-.551,3.732-.3,2.29,2.248,3.181c2.035.712,7.269,1.1,9.957-.317a22.668,22.668,0,0,1-.174-3.564.011.011,0,0,0,0,0h0c.026-3.07.26-6.388-.4-6.423a4.679,4.679,0,0,0,1.693-2.107c0-.013.01-.024.015-.035.03-.067.063-.106.1-.106a20.817,20.817,0,0,1,2.884,3.054s-1.82,2.276-3.084,3.932c-.192.252-.371.489-.529.7a3.261,3.261,0,0,0,.818,1.2,2.223,2.223,0,0,0,1.434.593c1.846-1.919,4.983-5.432,5.15-6.075.2-.763-3.2-4.976-4.835-7.04" transform="translate(0 0)"/></g></g><path class="u" d="M2.538.005a1.721,1.721,0,0,1,1.782,1.1A26.954,26.954,0,0,0,3.09,4.353c-.3,1.294-2.757.721-2.545-.467a11.654,11.654,0,0,1,.763-2.4,5.776,5.776,0,0,0-1.166.279c-.361.167-.191-.724,2.4-1.763" transform="translate(0 29.648)"/><path class="u" d="M1.375,0S-.774,1.739.3,3.1,1.618,4.255,1.983,4.255c.509-.113,1.6.071,1.145-2.488C2.379.961,1.375,0,1.375,0" transform="translate(19.382 26.84)"/><path class="r" d="M1.476,1.2A3.264,3.264,0,0,1,.658,0,5.945,5.945,0,0,0,0,.978a1.953,1.953,0,0,0,1.66,1.709,1.857,1.857,0,0,0,.376-.012c.227-.218.527-.522.873-.88A2.223,2.223,0,0,1,1.476,1.2" transform="translate(20.577 25.911)"/><path class="v" d="M2.48.055C1.685.036.264-.2.084.479S-.2,2.154,2.162,2.281,4.537,1.242,4.452.765,4.015.09,2.48.055" transform="translate(13.291 10.1)"/><path class="u" d="M.17,0A14.654,14.654,0,0,1,0,2.092a2.238,2.238,0,0,0,3.025.17,12.619,12.619,0,0,1,0-1.951Z" transform="translate(14.018 8.624)"/><path class="u" d="M.936.186A.522.522,0,0,0,.048.37c-.311.707,1,1.287,1,1.287A2.37,2.37,0,0,0,.936.186" transform="translate(11.934 4.635)"/><path class="u" d="M0,3.695A20.247,20.247,0,0,1,.132,6.261C.047,6.7-.059,8.05,2.8,8.716,6.366,8.4,5.688,6.865,5.879,6.053s.615-2.413.615-2.413V1.449L3.272,0,.132.874Z" transform="translate(12.84 0.813)"/><g transform="translate(12.457 0)"><path class="a" d="M0,0H7.309V4.58H0Z" transform="translate(0 0)"/><g class="w" transform="translate(0 0)"><path class="x" d="M4.9,3.45a3.3,3.3,0,0,1-2.856-.537C1.5,2.319,1.08,2.432.967,2.6S.779,4.156.383,4.58C-.079,3.436-.9.028,3.4,0,6.311-.028,8.205,2.008,6.876,4.524a17.7,17.7,0,0,1-.4-1.781c.014-.325-.664-.367-.848.113A1.07,1.07,0,0,1,4.9,3.45" transform="translate(0 0)"/></g></g><path class="u" d="M.323.129s.643-.439.855.3S.014,1.571.014,1.571A2.371,2.371,0,0,1,.323.129" transform="translate(18.801 4.878)"/></g></g><g transform="translate(189.237 7.587)"><g transform="translate(0 49.128)"><path class="e" d="M74.484,2.972,67.75,22.189a3.987,3.987,0,0,1-3.3,2.641L27.439,29.143a9.492,9.492,0,0,1-6.051-1.33L1.878,16.6A3.984,3.984,0,0,1,0,13.66l.355-2.494c.106,1.248.4-2.34,1.523-1.654l19.51,11.217a9.492,9.492,0,0,0,6.051,1.33L64.45,17.745a3.987,3.987,0,0,0,3.3-2.641L74.229.035c.094-.269.48,1.1.48,1.1A11.6,11.6,0,0,1,74.484,2.972Z" transform="translate(0.029 14.933)"/><g transform="translate(0 0)"><path class="a" d="M0,0H74.738V43.679H0Z"/><g class="y"><path class="g" d="M6.6,7.035.2,26.417a3.988,3.988,0,0,0,1.705,4.651l19.51,11.217a9.493,9.493,0,0,0,6.051,1.33L64.479,39.3a3.987,3.987,0,0,0,3.3-2.641l6.734-19.216a3.986,3.986,0,0,0-1.769-4.771L53,1.272A9.493,9.493,0,0,0,47.17.062L9.928,4.324A3.988,3.988,0,0,0,6.6,7.035" transform="translate(0 0)"/></g></g></g><g transform="translate(20.451)"><g transform="translate(0 12.835)"><path class="a" d="M0,0H9.841V22.148H0Z"/></g><path class="aa" d="M9.841.4A11,11,0,0,1,7.615.166C6.733-.064,5.083-.448,4.93,2.123s.5,6.331-1.88,11.2S-.25,19.7.057,20.616,1.515,22.535,2.09,22s0-1.88.384-2.34c.154-1.535,4.067-5.41,4.988-12.009S9.841.4,9.841.4" transform="translate(0 12.835)"/><path class="aa" d="M6.905,0A7.705,7.705,0,0,0,7.28,2.388c.345.633,2.446.2,3.885,2.5s4.518,5.467,4.921,6.359c.777-.173,2.244-3.252,2.59-6.273-.144-1.295-.921-1.161-.844-1.659s.95.144,1.189.527A17.668,17.668,0,0,0,18.9,1.986c-.038-.48.5-1.151,1.688-1.036s.863,2.724.518,3.53c-.211,2.762-2.264,12.786-5,10.8A27.43,27.43,0,0,1,10.963,9.9a29.886,29.886,0,0,0,0,7.942c.633,3.424,1.554,6.858-.595,18.292C9.7,40.573,12.9,52.17,13.131,53.321s.46,7.175-1.957,7.136c-1.42-.422.46-1.458-1.036-7.482S5.035,41.2,6.685,26.426c-2-.192-1.535-.192-1.535-.192A45.287,45.287,0,0,0,5.5,42.386C7.8,53.57,8.161,53.111,7.955,53.341c-.576.537-6.181,4.2-7.025,2.628S3.769,54.856,4.8,52.745c.077-4.6-3.146-8.978-4.192-16.575-.681-6.1.278-12.93.777-19.068a61.855,61.855,0,0,0,.345-6.254C.354,10.388-1.065,8.7,1.16,5.9,2.311,4.1,4.421,2.331,4,.451A8.15,8.15,0,0,0,6.905,0" transform="translate(5.266 10.555)"/><path class="ab" d="M1.681,0s6.21,3.888,10.034.816A49.952,49.952,0,0,1,13.64,9.657S11.349,14.236,0,8.851A32.84,32.84,0,0,1,1.681,0" transform="translate(4.834 29.3)"/><path class="ac" d="M3.539.329s1.108,2.888,7.752,1.716a12.043,12.043,0,0,1,2.652,2.711s-.419,2.39-2.4,2.907c.058,2.331-.6,3.455.32,9.662-1.816,1.935-7,1.532-10.034-.816,0,0,.691-9.241.621-11.493C1.957,4.93.576,5.017,0,3.981,0,1.189.287-.819,3.539.329" transform="translate(4.69 12.79)"/><path class="ad" d="M8.992,6.469s2.762-.029,2.475-3.712-5.582-3.338-6.5-.95c-1.352-.173-6.77.131-4.349,4.77s5.608,4.1,5.608,4.1,3.461-.034,2.77-4.207" transform="translate(6.258 0)"/><path class="u" d="M1.33.547A3.985,3.985,0,0,1,.985,2.7c-.5.767-1.6,1.453-.537,2.072.614.576.117,2.11.4,2.8.19.767,4.431,1.324,6.5-1.727,2.014-.259,1.42-3.25-.652-1.433a1.124,1.124,0,0,1-.672.2,5.6,5.6,0,0,0-.259-3.6C5.023-.115,1.138-.345,1.33.547" transform="translate(5.364 4.512)"/></g><g transform="translate(37.98 60.08)"><g transform="translate(0 3.816)"><path class="a" d="M19.4,0H0V18.106H19.4Z" transform="translate(0 0)"/><g class="ae" transform="translate(0 0)"><path class="i" d="M0,1.768l1.381,1.09,7.4-2.64a2.015,2.015,0,0,1,1.819,0l7.452,2.642L19.4,1.768V12.523h0a.645.645,0,0,1-.375.51l-8.409,4.855a2.015,2.015,0,0,1-1.819,0L.377,13.06A.627.627,0,0,1,0,12.523H0Z" transform="translate(0 0)"/></g></g><g transform="translate(0 0)"><path class="a" d="M19.4,0H0V11.167H19.4Z"/><g class="af"><g transform="translate(0 0)"><g transform="translate(0 0)"><path class="b" d="M.377,6.12l8.415,4.831a2.016,2.016,0,0,0,1.819,0l8.409-4.855a.552.552,0,0,0,0-1.047L10.6.216a2.015,2.015,0,0,0-1.819,0L.376,5.073a.552.552,0,0,0,0,1.047" transform="translate(0)"/><g class="ag"><path class="l" d="M.377,6.12l8.415,4.831a2.016,2.016,0,0,0,1.819,0l8.409-4.855a.552.552,0,0,0,0-1.047L10.6.216a2.015,2.015,0,0,0-1.819,0L.376,5.073a.552.552,0,0,0,0,1.047" transform="translate(-4.842 -2.641)"/></g></g></g></g></g></g></g><g transform="translate(0 101.22)"><g transform="translate(0 54.252)"><path class="e" d="M95.686,3.819,87.036,28.5A5.122,5.122,0,0,1,82.8,31.9L35.249,37.438a12.193,12.193,0,0,1-7.773-1.709L2.412,21.32A5.119,5.119,0,0,1,0,17.548l.456-3.2c.136,1.6.516-3.006,1.956-2.125l25.064,14.41a12.193,12.193,0,0,0,7.773,1.709L82.8,22.8a5.122,5.122,0,0,0,4.24-3.393L95.358.045c.121-.346.617,1.411.617,1.411A14.9,14.9,0,0,1,95.686,3.819Z" transform="translate(0.037 19.183)"/><g transform="translate(0 0)"><path class="a" d="M0,0H96.012V56.112H0Z"/><g class="ah"><path class="g" d="M8.473,9.038.259,33.937a5.123,5.123,0,0,0,2.191,5.975l25.064,14.41a12.2,12.2,0,0,0,7.774,1.709l47.545-5.541a5.122,5.122,0,0,0,4.24-3.393l8.651-24.686a5.12,5.12,0,0,0-2.273-6.129L68.081,1.634A12.2,12.2,0,0,0,60.6.079L12.754,5.555A5.123,5.123,0,0,0,8.473,9.038" transform="translate(0 0)"/></g></g></g><g transform="translate(56.304 40.366)"><g transform="translate(0 6.667)"><path class="a" d="M33.889,0H0V31.634H33.889Z" transform="translate(0 0)"/><g class="ai" transform="translate(0 0)"><path class="i" d="M0,3.088l2.414,1.9L15.35.381a3.521,3.521,0,0,1,3.178,0l13.02,4.616,2.342-1.9V21.879h0a1.127,1.127,0,0,1-.656.891L18.539,31.253a3.521,3.521,0,0,1-3.178,0l-14.7-8.44A1.1,1.1,0,0,1,0,21.879H0Z" transform="translate(0 0)"/></g></g><g transform="translate(0 0)"><path class="a" d="M33.889,0H0V19.509H33.889Z" transform="translate(0)"/><g class="aj" transform="translate(0)"><g transform="translate(0 0)"><g transform="translate(0 0)"><path class="b" d="M.659,10.693l14.7,8.44a3.521,3.521,0,0,0,3.178,0l14.692-8.483a.965.965,0,0,0,0-1.829L18.528.377a3.521,3.521,0,0,0-3.178,0L.658,8.864a.965.965,0,0,0,0,1.829"/><g class="ak"><path class="l" d="M.659,10.693l14.7,8.44a3.521,3.521,0,0,0,3.178,0l14.692-8.483a.965.965,0,0,0,0-1.829L18.528.377a3.521,3.521,0,0,0-3.178,0L.658,8.864a.965.965,0,0,0,0,1.829" transform="translate(-8.46 -4.614)"/></g></g></g></g></g></g><g transform="translate(28.557 0)"><g transform="translate(1.585 84.899)"><path class="a" d="M0,0H10.255V6.048H0Z" transform="translate(0 0)"/><g class="al" transform="translate(0 0)"><path class="am" d="M5.651.929s-9.54-3.288-3.829,2.509c0,0,6.59,4.846,8.421,1.331A3.578,3.578,0,0,0,9.071,1.84Z" transform="translate(0 0)"/></g></g><path class="am" d="M0,6.422s-.043,3.615,2.593,2.81S5.4,2.275,5.4,2.275,5.336.094,3.325.005c0,0-1.306-.42-3.325,6.417" transform="translate(19.705 80.217)"/><path class="e" d="M0,0S.659,40.448,2.836,45.72c0,0,2.762,2.241,4.324-.93,0,0-1.1-28.022,0-34.8l3.71-.2s2.868,19.424,3.972,35c0,0,1.885,2.687,4.228-1.023,0,0,.2-27.529-2.441-42.956,0,0-7.532,6-16.63-.812" transform="translate(4.863 41.848)"/><path class="an" d="M1.315,0s-3.146.156.3,3.315c0,0,.853-2.174,0-3.315" transform="translate(6.384 8.264)"/><path class="an" d="M.838.031S3.951.515.2,3.3c0,0-.621-2.252.347-3.3" transform="translate(17.656 8.208)"/><path class="ao" d="M2.372,3.575S-1,2.725.3,10.96l3.443,4.33h3.71l2.734-4.3S13.111,3.77,7.448.841,2.372,3.575,2.372,3.575" transform="translate(7.699 0.619)"/><path class="an" d="M2,0V2.075s.342.074-1.879.439c0,0-.837.439,1.888,1.172S8.688,2.88,7.224,2.514L5.759,2.148,5.711,0" transform="translate(9.437 15.909)"/><path class="ap" d="M8.469.089s-7-.756-7.59,2.173L0,7.241a5.077,5.077,0,0,0,4.686,0S3.644,18.992,3.774,23.514a13.859,13.859,0,0,0,16.63.812S19.8,9,20.4,5.191c0,0,3.515-.2,4.491.293,0,0,1.562-3.175,1.464-4.028,0,0-7.127-1.88-10.788-1.367s-3.71.22-3.71.22Z" transform="translate(1.089 18.334)"/><path class="an" d="M1.089,0S.307,8.688.112,10.836s-.2,15.718.488,17.28a6.145,6.145,0,0,0,2.734,1.269H5.677s1.367-1.855,0-2.929l-2.535-.2s.192-13.668.484-16.695A80.5,80.5,0,0,1,5.775,0,5.179,5.179,0,0,1,1.089,0" transform="translate(0 25.575)"/><g transform="translate(25.984 4.145)"><path class="a" d="M0,0H13.062V21.444H0Z" transform="translate(0 0)"/><g class="aq" transform="translate(0 0)"><path class="an" d="M1.464,15.644a15.666,15.666,0,0,1,3.124,1.588S8.1,6.98,9.08,5.711c0,0-1.017-2.991,0-4.686.293-.488,2.929-1.66,3.905-.586,0,0,.39,4.686-.586,6.053,0,0-4.531,12.2-5.136,14.254S0,19.672,0,19.672"/></g></g><path class="ar" d="M4.439,2.881S4.463,1.268,4.365.437c0,0-.592-.863-2.621-.164,0,0-1.155.415-1.343.854S-.431,2.661.46,5.709c0,0,3.541-1.314,3.979-2.828" transform="translate(34.603 4.148)"/><g transform="translate(33.575)"><path class="a" d="M0,0H4.93V8.463H0Z" transform="translate(0)"/><g class="as" transform="translate(0 0)"><path class="at" d="M0,0H4.93L4.881,8.407,0,8.463Z" transform="translate(0 0)"/></g></g><path class="a" d="M0,90.946H39.046V0H0Z" transform="translate(0 0)"/><g class="au" transform="translate(0 0)"><path class="av" d="M0,7.246H4.418V0H0Z" transform="translate(33.819 0.807)"/><path class="aw" d="M1.052.24A.118.118,0,0,0,1.133.022.114.114,0,0,0,1.061.006L.124,0H.117a.118.118,0,0,0,0,.236H.12Z" transform="translate(35.633 0.297)"/><path class="aw" d="M.015.072A.134.134,0,1,1,.071.252.134.134,0,0,1,.015.072" transform="translate(35.122 0.284)"/><path class="ax" d="M0,3.808S4.053,3.424,3.979.98c0,0-2.246-.321-2.832-.98,0,0-.952.293-.366.952a1.05,1.05,0,0,0,1.209.366l.475.842A16.5,16.5,0,0,1,0,3.808" transform="translate(35.064 6.048)"/></g></g></g><g transform="translate(113.704 112.772)"><g transform="translate(0 17.656)"><path class="ay" d="M2.313,2.467.071,9.263a1.4,1.4,0,0,0,.6,1.631L7.51,14.827a3.329,3.329,0,0,0,2.122.466l12.978-1.512a1.4,1.4,0,0,0,1.157-.926l2.361-6.738a1.4,1.4,0,0,0-.62-1.673l-6.925-4A3.329,3.329,0,0,0,16.54.022L3.481,1.516a1.4,1.4,0,0,0-1.168.951" transform="translate(0 2.185)"/><path class="e" d="M26.128,1.4,23.767,8.134a1.4,1.4,0,0,1-1.157.926L9.631,10.572a3.328,3.328,0,0,1-2.122-.466L.668,6.173A1.4,1.4,0,0,1,.01,5.143L0,4.089c.037.438.275-.641.668-.4L7.51,7.622a3.328,3.328,0,0,0,2.122.466L22.609,6.576a1.4,1.4,0,0,0,1.157-.926L26.128.007a4.332,4.332,0,0,1,.079.744A4.066,4.066,0,0,1,26.128,1.4Z" transform="translate(0 5.42)"/><g transform="translate(0 0)"><path class="a" d="M0,0H26.207V15.316H0Z"/><g class="az" transform="translate(0 0)"><path class="g" d="M2.313,2.467.071,9.263a1.4,1.4,0,0,0,.6,1.631L7.51,14.827a3.329,3.329,0,0,0,2.122.466l12.978-1.512a1.4,1.4,0,0,0,1.157-.926l2.361-6.738a1.4,1.4,0,0,0-.62-1.673l-6.925-4A3.329,3.329,0,0,0,16.54.022L3.481,1.516a1.4,1.4,0,0,0-1.168.951" transform="translate(0 0)"/></g></g></g><g transform="translate(7.57 0)"><path class="ba" d="M0,3.115,5.395,6.23l5.4-3.115L5.4,0Z" transform="translate(0 10.633)"/><path class="bb" d="M0,3.115v9.344L5.4,0Z" transform="translate(5.395 13.749)"/><path class="bc" d="M5.394,12.458V3.115L0,0Z" transform="translate(0.001 13.749)"/><path class="bb" d="M0,15.523l5.4-3.088L0,0Z" transform="translate(5.395 0.002)"/><path class="bc" d="M0,12.437l5.394,3.088V0Z" transform="translate(0.001)"/></g></g><g transform="translate(86.726 137.826)"><g transform="translate(0 0)"><path class="ay" d="M1.686,1.8.051,6.754A1.02,1.02,0,0,0,.487,7.944l4.988,2.868a2.427,2.427,0,0,0,1.547.34l9.463-1.1a1.019,1.019,0,0,0,.844-.675L19.052,4.46a1.019,1.019,0,0,0-.452-1.22L13.55.325A2.427,2.427,0,0,0,12.061.016L2.538,1.106a1.02,1.02,0,0,0-.852.693" transform="translate(0 1.593)"/><path class="e" d="M19.052,1.018,17.33,5.931a1.019,1.019,0,0,1-.844.675l-9.463,1.1a2.427,2.427,0,0,1-1.547-.34L.487,4.5a1.019,1.019,0,0,1-.48-.751L0,2.982c.027.319.2-.468.487-.292L5.476,5.558a2.427,2.427,0,0,0,1.547.34l9.463-1.1a1.019,1.019,0,0,0,.844-.675L19.052.005a3.158,3.158,0,0,1,.057.542A2.965,2.965,0,0,1,19.052,1.018Z" transform="translate(0 3.952)"/><g transform="translate(0)"><path class="a" d="M0,0H19.109V11.168H0Z"/><g class="bd"><path class="g" d="M1.686,1.8.051,6.754A1.02,1.02,0,0,0,.487,7.944l4.988,2.868a2.427,2.427,0,0,0,1.547.34l9.463-1.1a1.019,1.019,0,0,0,.844-.675L19.052,4.46a1.019,1.019,0,0,0-.452-1.22L13.55.325A2.427,2.427,0,0,0,12.061.016L2.538,1.106a1.02,1.02,0,0,0-.852.693" transform="translate(0 0)"/></g></g></g></g><g transform="translate(159.78 80.115)"><g transform="translate(0 0)"><path class="ay" d="M1.686,1.8.051,6.754A1.02,1.02,0,0,0,.487,7.944l4.988,2.868a2.427,2.427,0,0,0,1.547.34l9.463-1.1a1.019,1.019,0,0,0,.844-.675L19.052,4.46a1.019,1.019,0,0,0-.452-1.22L13.55.325A2.427,2.427,0,0,0,12.061.016L2.538,1.106a1.02,1.02,0,0,0-.852.693" transform="translate(0 1.593)"/><path class="e" d="M19.052,1.018,17.33,5.931a1.019,1.019,0,0,1-.844.675l-9.463,1.1a2.427,2.427,0,0,1-1.547-.34L.487,4.5a1.019,1.019,0,0,1-.48-.751L0,2.982c.027.319.2-.468.487-.292L5.476,5.558a2.427,2.427,0,0,0,1.547.34l9.463-1.1a1.019,1.019,0,0,0,.844-.675L19.052.005a3.158,3.158,0,0,1,.057.542A2.965,2.965,0,0,1,19.052,1.018Z" transform="translate(0 3.952)"/><g transform="translate(0)"><path class="a" d="M0,0H19.109V11.168H0Z"/><g class="bd"><path class="g" d="M1.686,1.8.051,6.754A1.02,1.02,0,0,0,.487,7.944l4.988,2.868a2.427,2.427,0,0,0,1.547.34l9.463-1.1a1.019,1.019,0,0,0,.844-.675L19.052,4.46a1.019,1.019,0,0,0-.452-1.22L13.55.325A2.427,2.427,0,0,0,12.061.016L2.538,1.106a1.02,1.02,0,0,0-.852.693" transform="translate(0 0)"/></g></g></g></g><g transform="translate(152.657 104.215)"><g transform="translate(39.047 93.305)"><path class="e" d="M55.139,2.2,50.154,16.426a2.952,2.952,0,0,1-2.444,1.955l-27.4,3.193a7.026,7.026,0,0,1-4.479-.985L1.39,12.285A2.95,2.95,0,0,1,0,10.112L.263,8.265c.079.924.3-1.732,1.127-1.225l14.443,8.3a7.026,7.026,0,0,0,4.479.985l27.4-3.193a2.952,2.952,0,0,0,2.444-1.955L54.95.026c.07-.2.355.813.355.813A8.584,8.584,0,0,1,55.139,2.2Z" transform="translate(0.021 11.054)"/><g transform="translate(0 0)"><path class="a" d="M0,0H55.327V32.334H0Z"/><g class="be"><path class="g" d="M4.882,5.208.149,19.556A2.952,2.952,0,0,0,1.411,23l14.443,8.3a7.027,7.027,0,0,0,4.48.985l27.4-3.193a2.952,2.952,0,0,0,2.444-1.955L55.16,12.914a2.951,2.951,0,0,0-1.31-3.532L39.232.941a7.028,7.028,0,0,0-4.312-.9L7.349,3.2A2.952,2.952,0,0,0,4.882,5.208" transform="translate(0 0)"/></g></g></g><g transform="translate(51.497 57.108)"><g transform="translate(0 10.828)"><path class="bb" d="M0,4.56V4.39l.072-.018A.585.585,0,0,1,.258,4.21L7.292.149a1.677,1.677,0,0,1,1.5.062l1.947,1.124a.83.83,0,0,1,.3.274l.066-.017v.254h0a.453.453,0,0,1-.258.356L3.815,6.264a1.677,1.677,0,0,1-1.5-.062L.366,5.078A.6.6,0,0,1,0,4.56" transform="translate(0.001 0.232)"/><path class="bc" d="M3.816,6.264,10.85,2.2c.384-.222.335-.612-.108-.868L8.8.212a1.677,1.677,0,0,0-1.5-.062L.259,4.21c-.384.222-.335.612.108.868L2.313,6.2a1.677,1.677,0,0,0,1.5.062" transform="translate(0 0)"/><path class="bf" d="M.545,2.127,3.684.315C3.8.25,3.782.136,3.653.062A.489.489,0,0,0,3.214.044L.075,1.856c-.112.065-.1.179.031.253a.489.489,0,0,0,.438.018" transform="translate(6.238 2.269)"/><path class="g" d="M.545,2.127,3.684.315C3.8.25,3.782.136,3.653.062A.489.489,0,0,0,3.214.044L.075,1.856c-.112.065-.1.179.031.253a.489.489,0,0,0,.438.018" transform="translate(6.238 2.192)"/><path class="bf" d="M.1.275h0A.454.454,0,0,0,.506.292C.61.232.6.127.477.057A.454.454,0,0,0,.07.04C-.034.1-.021.206.1.275" transform="translate(2.871 3.396)"/><path class="g" d="M.1.275h0A.454.454,0,0,0,.506.292C.61.232.6.127.477.057A.454.454,0,0,0,.07.04C-.034.1-.021.206.1.275" transform="translate(2.871 3.319)"/><path class="bf" d="M.1.275h0A.454.454,0,0,0,.506.292C.61.232.6.127.477.057A.454.454,0,0,0,.07.04C-.034.1-.021.206.1.275" transform="translate(2.231 3.765)"/><path class="g" d="M.1.275h0A.454.454,0,0,0,.506.292C.61.232.6.127.477.057A.454.454,0,0,0,.07.04C-.034.1-.021.206.1.275" transform="translate(2.231 3.688)"/><path class="bf" d="M.1.275h0A.454.454,0,0,0,.506.292C.61.232.6.127.477.057A.454.454,0,0,0,.07.04C-.034.1-.021.206.1.275" transform="translate(1.592 4.135)"/><path class="g" d="M.1.275h0A.454.454,0,0,0,.506.292C.61.232.6.127.477.057A.454.454,0,0,0,.07.04C-.034.1-.021.206.1.275" transform="translate(1.592 4.057)"/></g><g transform="translate(3.024 0)"><g transform="translate(5.524 48.845)"><path class="a" d="M0,0H7.864V3.62H0Z" transform="translate(0 0)"/><g class="bg" transform="translate(0 0)"><path class="bh" d="M4.348.613a7.129,7.129,0,0,1-3.4,1.576C-.949,2.5-.249,4.2,5.355,3.415A3.524,3.524,0,0,1,7.368,3.2,1.6,1.6,0,0,0,7.441.963L5.223,0Z" transform="translate(0)"/></g></g><path class="bh" d="M1.744.144S-1.214-.771.574,2.015a30.227,30.227,0,0,0,3.252,3.1c.625.6,1.6,0,1.091-1.926Z" transform="translate(13.254 44.665)"/><path class="bb" d="M.422,5.976S-.141,19.669.034,20.954s1.226,8.727,1.226,8.727,1.022,2.1,3.094.35c0,0-1.07-8.289-.861-10.069S5.1,8.23,5.1,8.23s-.747.263,1.033.35c0,0-.584,6.129-.584,7.792S6.6,26.879,6.6,26.879s3.532,2.63,3.152.35C9.665,26.7,9.282,17.1,9.3,14.768s1.28-7.639,1.529-9.891L5.414,0,4.353,2.889,1.96,5.078Z" transform="translate(8.612 19.777)"/><path class="bi" d="M1.962.849S1.379-.265.561.059A1.253,1.253,0,0,0,.878,2.3,4.71,4.71,0,0,0,1.962.849" transform="translate(0 15.018)"/><path class="bj" d="M11.532.875S7.5,2.754,6.717,3.959,4.966,9.893,3.478,8.842A11.244,11.244,0,0,0,1.084,7.471S-.245,8.58.04,9.339s3.671,3.619,4.838,2.977A9.284,9.284,0,0,0,8.156,8.346a19.56,19.56,0,0,0,.319,4.5,22.255,22.255,0,0,0-.912,4.315s3.852,1.518,6.888,0V14.417l1.284,2.451a12.809,12.809,0,0,0,3.152-.759,30.309,30.309,0,0,1,0-4.319,9.919,9.919,0,0,0,1.751-2.436v-5.4A6.593,6.593,0,0,0,17.253,0L13.867.043s-.73-.219-2.335.832" transform="translate(0.866 8.396)"/><path class="bk" d="M1.4,10.448V4.2c0-.408.232-2.878-1.4-4.2" transform="translate(18.364 9.739)"/><g transform="translate(8.12)"><path class="a" d="M0,0H8.188V7.87H0Z" transform="translate(0)"/><g class="bl" transform="translate(0)"><path class="bm" d="M1.043,3.106A2.429,2.429,0,0,1,0,1.873,2.618,2.618,0,0,1,3.064.6,3.09,3.09,0,0,1,7.586,1.632C9.368,4.543,6.625,6.9,6.625,6.9L5.91,7.87,2.714,6.9,1.4,5.681Z" transform="translate(0 0)"/></g></g><path class="bi" d="M.129,0S1.917.27,1.684,1.438l-.467.992.488.488A4.016,4.016,0,0,1,2.151,1.9c.234-.292,1.81,0,.525,1.459a6.169,6.169,0,0,0,2.393,1.1l.642-.675V5.334s-.058-.35-2.335.832c0,0,1.313-1.488-1.226-.919C2.151,5.246-.623,6.53.129,0" transform="translate(9.034 3.106)"/><path class="bn" d="M.525,0S.788,1.335,0,1.882c0,0,2.408-.657,1.226.919,0,0,2.043-1.095,2.335-.832V.427L2.918,1.1A4.587,4.587,0,0,1,.525,0" transform="translate(11.185 6.47)"/></g></g><g transform="translate(0 0)"><g transform="translate(0 56.497)"><path class="bh" d="M1.29,11.241l0,0,.024.012a.046.046,0,0,0,.012.007l.77.441.153.089a3.225,3.225,0,0,0,3.116-.36,9.9,9.9,0,0,0,4.5-7.753A3.129,3.129,0,0,0,8.557.8C8.539.79,8.518.78,8.5.768L7.707.313A3.155,3.155,0,0,0,4.5.617,9.908,9.908,0,0,0,0,8.373a3.131,3.131,0,0,0,1.29,2.869" transform="translate(0 0)"/><path class="bo" d="M1.054,4.442l-.039.078A8.786,8.786,0,0,0,0,8.372c0,2.849,2.013,4,4.5,2.563a9.907,9.907,0,0,0,4.5-7.755c0-2.849-2.013-4-4.5-2.563A8.332,8.332,0,0,0,2.2,2.67" transform="translate(0.869 0.499)"/><path class="g" d="M1.886,5.094a.367.367,0,0,1-.365.037L.151,4.35c-.2-.115-.2-.489,0-.837s.528-.536.729-.421l1.006.573L3.748.455c.2-.347.528-.536.729-.421s.2.489,0,.837L2.25,4.711a1.055,1.055,0,0,1-.364.384" transform="translate(3.191 3.461)"/></g><g transform="translate(15.323)"><path class="bp" d="M38.735,9.365,1.191,31.041c-.658.38-1.191-.023-1.191-.9V24.1a2.853,2.853,0,0,1,1.191-2.276L38.735.143c.658-.38,1.191.023,1.191.9V7.089a2.853,2.853,0,0,1-1.191,2.276" transform="translate(0)"/><path class="bp" d="M38.735,9.365,1.191,31.041C.533,31.421,0,31.018,0,30.14V24.1a2.853,2.853,0,0,1,1.191-2.276L38.735.143c.658-.38,1.191.023,1.191.9V7.089a2.853,2.853,0,0,1-1.191,2.276" transform="translate(0 12.17)"/><path class="bp" d="M38.735,9.366,1.191,31.041C.533,31.421,0,31.018,0,30.14V24.095a2.854,2.854,0,0,1,1.191-2.276L38.735.143c.658-.38,1.191.023,1.191.9V7.089a2.853,2.853,0,0,1-1.191,2.276" transform="translate(0 36.51)"/><path class="bp" d="M38.735,9.366,1.191,31.041C.533,31.421,0,31.018,0,30.14V24.095a2.853,2.853,0,0,1,1.191-2.276L38.735.143c.658-.38,1.191.023,1.191.9V7.089a2.853,2.853,0,0,1-1.191,2.276" transform="translate(0 48.68)"/></g><path class="bb" d="M38.735,9.365,1.191,31.041c-.658.38-1.191-.023-1.191-.9V24.1a2.852,2.852,0,0,1,1.191-2.276L38.735.143c.658-.38,1.191.023,1.191.9V7.089a2.852,2.852,0,0,1-1.191,2.276" transform="translate(20.868 26.315)"/><path class="bq" d="M.453,13.354,21.4,1.263A1.085,1.085,0,0,0,21.849.4c0-.334-.2-.487-.453-.342L.453,12.146A1.085,1.085,0,0,0,0,13.012c0,.334.2.487.453.342" transform="translate(33.578 31.651)"/><path class="br" d="M.453,13.354,21.4,1.263A1.086,1.086,0,0,0,21.849.4c0-.334-.2-.487-.453-.343L.453,12.146A1.085,1.085,0,0,0,0,13.012c0,.334.2.487.453.343" transform="translate(24.508 40.193)"/><path class="ac" d="M.453,5.5,7.8,1.263A1.085,1.085,0,0,0,8.248.4c0-.334-.2-.487-.453-.343L.453,4.293A1.085,1.085,0,0,0,0,5.159c0,.334.2.487.453.342" transform="translate(24.364 44.823)"/><path class="bs" d="M8.41.646.242,5.363C.088,5.452-.019,5.388,0,5.22A.715.715,0,0,1,.32,4.756L8.489.04c.154-.089.261-.025.239.143A.715.715,0,0,1,8.41.646" transform="translate(10.964 53.675)"/></g></g></g></g></svg>