<svg xmlns="http://www.w3.org/2000/svg" xmlns:xlink="http://www.w3.org/1999/xlink" width="36" height="36" viewBox="0 0 36 36"><defs><style>.a{fill:url(#a);}.b{fill:#fff;}</style><linearGradient id="a" x1="0.5" x2="0.5" y2="1" gradientUnits="objectBoundingBox"><stop offset="0" stop-color="#08bdff"/><stop offset="1" stop-color="#0058ff"/></linearGradient></defs><g transform="translate(-34 -175)"><circle class="a" cx="18" cy="18" r="18" transform="translate(34 175)"/><path class="b" d="M1.6,6.194H0v3.993H.008L0,17.374a1.6,1.6,0,0,0,1.6,1.6H15.972v-1.6H1.6ZM17.569,4.6H11.18L9.583,3H4.791A1.6,1.6,0,0,0,3.2,4.6L3.194,14.18a1.6,1.6,0,0,0,1.6,1.6H17.569a1.6,1.6,0,0,0,1.6-1.6V6.194A1.6,1.6,0,0,0,17.569,4.6ZM5.59,13.382,9.184,8.59l2.8,3.6,2-2.4,2.8,3.594Z" transform="translate(42.617 182.015)"/></g></svg>