<svg xmlns="http://www.w3.org/2000/svg" xmlns:xlink="http://www.w3.org/1999/xlink" width="36" height="36" viewBox="0 0 36 36"><defs><style>.a{fill:url(#a);}.b{fill:#fff;}</style><linearGradient id="a" x1="0.5" x2="0.5" y2="1" gradientUnits="objectBoundingBox"><stop offset="0" stop-color="#08bdff"/><stop offset="1" stop-color="#0058ff"/></linearGradient></defs><g transform="translate(-34 -165)"><circle class="a" cx="18" cy="18" r="18" transform="translate(34 165)"/><g transform="translate(39.942 171.249)"><path class="b" d="M21.093,10.827A9.24,9.24,0,0,0,13.741,2.51a9.35,9.35,0,0,0-1.877-.19A9.233,9.233,0,0,0,2.63,11.527v2.555a1.534,1.534,0,0,0,3.067,0V11.527a6.177,6.177,0,0,1,12.354,0v2.555a1.534,1.534,0,0,0,3.067,0V11.527C21.12,11.292,21.11,11.058,21.093,10.827Z"/><path class="b" d="M19.724,38.963a3.588,3.588,0,0,1-3.5-2.8,3.645,3.645,0,0,1-.087-.789V32.817a4.1,4.1,0,0,0-8.209,0v2.555a3.582,3.582,0,0,1-3.577,3.589,1.532,1.532,0,0,0,0,3.063A6.654,6.654,0,0,0,11,35.372V32.817a1.037,1.037,0,0,1,2.074,0v2.555a6.67,6.67,0,0,0,6.66,6.654,1.532,1.532,0,1,0-.012-3.063Z" transform="translate(-0.161 -21.29)"/></g></g></svg>